<svg width="162" height="172" viewBox="0 0 162 172" fill="none" xmlns="http://www.w3.org/2000/svg">
<path fill-rule="evenodd" clip-rule="evenodd" d="M65.9339 107.453L116.625 119.648L107.465 97.7934C116.696 91.0084 123.696 81.3844 127.16 70.1713C117.393 77.0991 106.43 83.3663 95.4665 87.9552C78.2362 95.2044 62.8985 99.6325 49.7748 101.829C52.8817 103.489 56.1849 104.864 59.5774 105.935L65.9339 107.453Z" fill="url(#paint0_linear_351_670)"/>
<path fill-rule="evenodd" clip-rule="evenodd" d="M126.267 72.8317C126.588 71.939 126.874 71.0641 127.16 70.1713C117.393 77.0991 106.43 83.3664 95.4665 87.9552C78.2362 95.2044 62.8985 99.6325 49.7748 101.829C52.8817 103.489 56.1849 104.864 59.5774 105.935L65.1304 107.239C76.4506 103.275 87.4852 98.0791 97.9127 92.419C107.912 86.9731 117.536 80.2238 126.267 72.8317Z" fill="#870000"/>
<path fill-rule="evenodd" clip-rule="evenodd" d="M40.2758 95.3116C29.4555 96.8293 20.3315 96.2936 14.5285 93.0082C7.17211 88.8658 6.15436 78.224 22.7419 66.5824C21.8849 63.047 21.4028 59.3331 21.2957 55.5478C-17.5753 85.2233 -0.380673 110.131 49.7748 101.811C62.8985 99.6147 78.254 95.2044 95.4665 87.9373C106.43 83.3307 117.393 77.0813 127.16 70.1534C165.924 42.6027 185.725 4.37455 113.536 15.6412C115.625 17.7303 117.571 19.9979 119.303 22.3905C142.265 18.7124 152.621 22.2477 151.8 30.354C150.979 38.5317 142.247 48.2093 129.445 57.5833C105.573 75.1172 67.4873 91.5798 40.2758 95.3116Z" fill="url(#paint1_linear_351_670)"/>
<path fill-rule="evenodd" clip-rule="evenodd" d="M129.517 52.0303C129.088 40.9957 125.374 30.8004 119.303 22.4262C117.571 20.0158 115.625 17.766 113.536 15.6769C103.734 5.98153 90.3063 0 75.4507 0C45.5253 0 21.2957 24.2296 21.2957 54.1551C21.2957 54.6193 21.2957 55.0836 21.2957 55.5657C21.4028 59.351 21.9027 63.0649 22.7419 66.6002C24.9738 76.0814 29.6698 84.5627 36.1512 91.4012L39.6866 90.9013C67.273 87.116 104.341 70.4927 126.838 54.0123L129.517 52.0303ZM104.126 61.1187C100.27 61.1187 97.1628 58.0118 97.1628 54.1551C97.1628 50.2984 100.27 47.1915 104.126 47.1915C107.983 47.1915 111.09 50.2984 111.09 54.1551C111.09 58.0118 107.983 61.1187 104.126 61.1187ZM75.4329 61.1187C71.5761 61.1187 68.4336 58.0118 68.4336 54.1551C68.4336 50.2984 71.5761 47.1915 75.4329 47.1915C79.2896 47.1915 82.3964 50.2984 82.3964 54.1551C82.4143 58.0118 79.2896 61.1187 75.4329 61.1187ZM53.6851 54.1551C53.6851 58.0118 50.5783 61.1187 46.7216 61.1187C42.8648 61.1187 39.758 58.0118 39.758 54.1551C39.758 50.2984 42.8648 47.1915 46.7216 47.1915C50.5783 47.1737 53.6851 50.2984 53.6851 54.1551Z" fill="url(#paint2_linear_351_670)"/>
<path fill-rule="evenodd" clip-rule="evenodd" d="M58.631 86.7946C81.7894 80.1524 107.412 67.7965 125.017 55.3157C118.607 44.424 106.769 37.139 93.2167 37.139C72.8439 37.139 56.3277 53.6194 56.3277 73.9923C56.3456 78.4919 57.1491 82.795 58.631 86.7946ZM104.126 61.1187C100.27 61.1187 97.1628 58.0118 97.1628 54.1551C97.1628 50.2984 100.27 47.1915 104.126 47.1915C107.983 47.1915 111.09 50.2984 111.09 54.1551C111.09 58.0118 107.983 61.1187 104.126 61.1187ZM75.4329 61.1187C71.5761 61.1187 68.4336 58.0118 68.4336 54.1551C68.4336 50.2984 71.5761 47.1915 75.4329 47.1915C79.2896 47.1915 82.3964 50.2984 82.3964 54.1551C82.4143 58.0118 79.2896 61.1187 75.4329 61.1187Z" fill="#003780"/>
<path fill-rule="evenodd" clip-rule="evenodd" d="M129.374 49.6556C128.552 39.5316 124.946 30.1933 119.285 22.4262C117.554 20.0158 115.607 17.766 113.518 15.6769C103.716 5.98153 90.2885 0 75.4329 0C45.5074 0 21.2778 24.2296 21.2778 54.1551C21.2778 54.6193 21.2778 55.0836 21.2778 55.5657C21.3849 59.351 21.8849 63.0649 22.7241 66.6002C24.956 76.0814 29.6519 84.5627 36.1334 91.4012H36.2762C32.7409 84.4555 30.7768 76.6171 30.7768 68.3322C30.7768 40.103 53.6673 17.2661 81.8429 17.2661C103.448 17.2661 121.946 30.6932 129.374 49.6556Z" fill="#22A7F0"/>
<path fill-rule="evenodd" clip-rule="evenodd" d="M130.409 13.82C162.174 13.4272 161.924 29.2827 146.925 47.4594C126.267 72.4032 43.1505 114.345 5.72583 96.8292C13.4393 102.954 28.7234 105.311 49.757 101.811C62.8806 99.6147 78.2362 95.2044 95.4487 87.9373C106.412 83.3306 117.375 77.0813 127.142 70.1534C162.513 45.031 182.118 10.9989 130.409 13.82Z" fill="#FAAD32"/>
<path fill-rule="evenodd" clip-rule="evenodd" d="M109.322 110.917L72.6832 109.078L116.607 119.648L107.447 97.7934L109.322 110.917Z" fill="#FAAD32"/>
<path d="M24.0989 158.234C24.0989 161.93 22.5634 164.037 19.278 164.037H12.5644C9.8504 164.037 7.90418 162.287 7.90418 158.501V153.02H12.8858V159.323H19.153V151.877L10.1182 146.021C8.47555 144.949 7.90418 143.86 7.90418 141.61V135.557C7.90418 132.129 9.38617 130.683 12.5644 130.683H19.2423C22.8848 130.683 24.1168 132.326 24.1168 136.218V141.092H19.1352V135.397H12.868V141.807L21.9027 147.61C23.599 148.681 24.1168 149.717 24.1168 152.02V158.234H24.0989Z" fill="white"/>
<path d="M27.3843 139.718H31.9553L32.1517 141.467C33.3837 140.539 35.6334 139.521 38.2582 139.521C41.5436 139.521 42.8827 141.467 42.8827 144.396V159.376C42.8827 162.305 41.5436 164.251 38.2582 164.251C35.1871 164.251 32.7766 162.822 32.2052 162.305V172H27.3843V139.718ZM38.0439 159.573V144.235H32.2052V159.573H38.0439Z" fill="white"/>
<path d="M46.0609 159.358V144.378C46.0609 141.45 47.4001 139.503 50.7212 139.503C53.2923 139.503 55.5421 140.521 56.7741 141.45L56.9705 139.7H61.595V164.019H56.9705L56.7741 162.269C56.167 162.787 53.7923 164.215 50.7212 164.215C47.3822 164.233 46.0609 162.287 46.0609 159.358ZM56.7741 159.573V144.235H50.8819V159.573H56.7741Z" fill="white"/>
<path d="M64.934 159.001V144.485C64.934 141.146 66.7731 139.718 69.7013 139.718H75.0936C78.4326 139.718 79.8074 141.557 79.8074 144.896V147.931H75.0936V144.235H69.6478V159.573H75.0936V154.912H79.8074V158.716C79.8074 161.947 78.3254 164.054 74.7722 164.054H69.7906C66.8266 164.037 64.934 162.447 64.934 159.001Z" fill="white"/>
<path d="M82.6821 158.751V144.753C82.6821 141.271 84.4855 139.718 87.4495 139.718H93.2525C96.3771 139.718 97.9127 141.36 97.9127 144.699V153.823H87.3959V159.769H93.2525V157.252H97.9127V158.841C97.9127 162.376 96.3771 164.019 93.1453 164.019H87.5566C84.4319 164.037 82.6821 162.394 82.6821 158.751ZM87.3959 144.128V150.431H93.2525V144.128H87.3959Z" fill="white"/>
<path d="M105.769 135.468H99.7161V130.701H116.857V135.468H110.804V164.037H105.769V135.468Z" fill="#D1D1D1"/>
<path d="M115.268 159.358V144.378C115.268 141.45 116.607 139.503 119.928 139.503C122.499 139.503 124.749 140.521 125.981 141.45L126.178 139.7H130.802V164.019H126.178L125.981 162.269C125.374 162.787 122.999 164.215 119.928 164.215C116.589 164.233 115.268 162.287 115.268 159.358ZM125.981 159.573V144.235H120.089V159.573H125.981Z" fill="#D1D1D1"/>
<path d="M134.391 129.969H139.158V164.037H134.391V129.969Z" fill="#D1D1D1"/>
<path d="M142.854 129.969H147.675V149.002H148.336L152.639 139.718H158.031L152.496 151.002V151.466L158.71 164.037H153.318L148.443 153.877H147.675V164.037H142.854V129.969Z" fill="#D1D1D1"/>
<defs>
<linearGradient id="paint0_linear_351_670" x1="78.3593" y1="74.7584" x2="116.346" y2="117.006" gradientUnits="userSpaceOnUse">
<stop stop-color="#B71C0C"/>
<stop offset="1" stop-color="#F39C12"/>
</linearGradient>
<linearGradient id="paint1_linear_351_670" x1="2.22743" y1="98.2533" x2="166.603" y2="20.8588" gradientUnits="userSpaceOnUse">
<stop stop-color="#B71C0C"/>
<stop offset="1" stop-color="#F39C12"/>
</linearGradient>
<linearGradient id="paint2_linear_351_670" x1="85.5377" y1="77.0657" x2="50.3672" y2="-2.69086" gradientUnits="userSpaceOnUse">
<stop stop-color="#004790"/>
<stop offset="1" stop-color="#1297E0"/>
</linearGradient>
</defs>
</svg>
