<svg width="47" height="39" viewBox="0 0 47 39" fill="none" xmlns="http://www.w3.org/2000/svg">
<path fill-rule="evenodd" clip-rule="evenodd" d="M19.1305 35.0249L33.8383 39L31.1807 31.8763C33.8591 29.6647 35.8899 26.5277 36.8949 22.8727C34.0611 25.1309 30.8802 27.1737 27.6993 28.6695C22.6999 31.0324 18.2498 32.4758 14.442 33.1916C15.3434 33.7329 16.3018 34.181 17.2862 34.5302L19.1305 35.0249Z" fill="url(#paint0_linear_352_353)"/>
<path fill-rule="evenodd" clip-rule="evenodd" d="M36.6359 23.7399C36.7291 23.4489 36.812 23.1637 36.8949 22.8727C34.0611 25.1309 30.8802 27.1737 27.6993 28.6695C22.6999 31.0324 18.2498 32.4758 14.442 33.1916C15.3434 33.7329 16.3018 34.181 17.2862 34.5302L18.8973 34.9551C22.1819 33.663 25.3835 31.9694 28.409 30.1245C31.3102 28.3494 34.1025 26.1494 36.6359 23.7399Z" fill="#870000"/>
<path fill-rule="evenodd" clip-rule="evenodd" d="M11.6859 31.0673C8.54641 31.562 5.8991 31.3874 4.21539 30.3165C2.08096 28.9663 1.78567 25.4975 6.59849 21.7029C6.34982 20.5505 6.20994 19.3399 6.17886 18.1061C-5.09941 27.779 -0.110451 35.8979 14.442 33.1858C18.2498 32.4699 22.7051 31.0324 27.6993 28.6636C30.8802 27.1621 34.0611 25.125 36.8949 22.8669C48.1421 13.8866 53.8874 1.42589 32.9421 5.09833C33.5482 5.77927 34.1129 6.51841 34.6154 7.2983C41.2777 6.09937 44.2825 7.25174 44.0442 9.89403C43.8059 12.5596 41.2726 15.7141 37.558 18.7696C30.6315 24.4848 19.5812 29.8509 11.6859 31.0673Z" fill="url(#paint1_linear_352_353)"/>
<path fill-rule="evenodd" clip-rule="evenodd" d="M37.5787 16.9596C37.4544 13.3628 36.3768 10.0395 34.6154 7.30995C34.1129 6.52425 33.5482 5.79093 32.9421 5.10998C30.0979 1.94971 26.202 0 21.8917 0C13.209 0 6.17883 7.89778 6.17883 17.6521C6.17883 17.8035 6.17883 17.9548 6.17883 18.1119C6.20992 19.3458 6.35497 20.5563 6.59846 21.7087C7.24604 24.7991 8.60855 27.5636 10.4891 29.7927L11.5149 29.6298C19.519 28.3959 30.274 22.9775 36.8016 17.6056L37.5787 16.9596ZM30.2119 19.922C29.0928 19.922 28.1914 18.9093 28.1914 17.6521C28.1914 16.395 29.0928 15.3823 30.2119 15.3823C31.3309 15.3823 32.2323 16.395 32.2323 17.6521C32.2323 18.9093 31.3309 19.922 30.2119 19.922ZM21.8866 19.922C20.7675 19.922 19.8557 18.9093 19.8557 17.6521C19.8557 16.395 20.7675 15.3823 21.8866 15.3823C23.0056 15.3823 23.907 16.395 23.907 17.6521C23.9122 18.9093 23.0056 19.922 21.8866 19.922ZM15.5765 17.6521C15.5765 18.9093 14.6751 19.922 13.5561 19.922C12.4371 19.922 11.5356 18.9093 11.5356 17.6521C11.5356 16.395 12.4371 15.3823 13.5561 15.3823C14.6751 15.3765 15.5765 16.395 15.5765 17.6521Z" fill="url(#paint2_linear_352_353)"/>
<path fill-rule="evenodd" clip-rule="evenodd" d="M17.0116 28.2912C23.7309 26.1262 31.1651 22.0987 36.2732 18.0305C34.4134 14.4803 30.9786 12.1057 27.0465 12.1057C21.1354 12.1057 16.3433 17.4776 16.3433 24.1182C16.3484 25.5849 16.5816 26.9875 17.0116 28.2912ZM30.2119 19.922C29.0928 19.922 28.1914 18.9093 28.1914 17.6522C28.1914 16.3951 29.0928 15.3824 30.2119 15.3824C31.3309 15.3824 32.2323 16.3951 32.2323 17.6522C32.2323 18.9093 31.3309 19.922 30.2119 19.922ZM21.8866 19.922C20.7675 19.922 19.8557 18.9093 19.8557 17.6522C19.8557 16.3951 20.7675 15.3824 21.8866 15.3824C23.0056 15.3824 23.907 16.3951 23.907 17.6522C23.9122 18.9093 23.0056 19.922 21.8866 19.922Z" fill="#003780"/>
<path fill-rule="evenodd" clip-rule="evenodd" d="M37.5373 16.1855C37.299 12.8855 36.2525 9.84167 34.6102 7.30995C34.1077 6.52425 33.543 5.79093 32.9369 5.10998C30.0927 1.94971 26.1968 0 21.8865 0C13.2038 0 6.17365 7.89778 6.17365 17.6521C6.17365 17.8035 6.17365 17.9548 6.17365 18.1119C6.20473 19.3458 6.34979 20.5563 6.59328 21.7087C7.24086 24.7991 8.60337 27.5636 10.4839 29.7927H10.5254C9.49962 27.5287 8.92975 24.9737 8.92975 22.2732C8.92975 13.0718 15.5713 5.62797 23.7464 5.62797C30.015 5.62797 35.3821 10.0046 37.5373 16.1855Z" fill="#22A7F0"/>
<path fill-rule="evenodd" clip-rule="evenodd" d="M37.8377 4.50471C47.0541 4.37667 46.9816 9.54486 42.6298 15.4696C36.6358 23.6002 12.5199 37.2715 1.66129 31.562C3.89932 33.5583 8.33396 34.3265 14.4368 33.1858C18.2445 32.4699 22.6999 31.0324 27.694 28.6636C30.8749 27.1621 34.0559 25.1251 36.8897 22.8669C47.1525 14.6781 52.8409 3.58515 37.8377 4.50471Z" fill="#FAAD32"/>
<path fill-rule="evenodd" clip-rule="evenodd" d="M31.7194 36.154L21.0887 35.5545L33.8331 39L31.1754 31.8763L31.7194 36.154Z" fill="#FAAD32"/>
<defs>
<linearGradient id="paint0_linear_352_353" x1="22.7357" y1="24.3679" x2="35.1872" y2="36.6945" gradientUnits="userSpaceOnUse">
<stop stop-color="#B71C0C"/>
<stop offset="1" stop-color="#F39C12"/>
</linearGradient>
<linearGradient id="paint1_linear_352_353" x1="0.646281" y1="32.0262" x2="50.2067" y2="11.2547" gradientUnits="userSpaceOnUse">
<stop stop-color="#B71C0C"/>
<stop offset="1" stop-color="#F39C12"/>
</linearGradient>
<linearGradient id="paint2_linear_352_353" x1="24.8184" y1="25.12" x2="12.4665" y2="0.186662" gradientUnits="userSpaceOnUse">
<stop stop-color="#004790"/>
<stop offset="1" stop-color="#1297E0"/>
</linearGradient>
</defs>
</svg>
